<svg version="1.1" id="Layer_1" xmlns="http://www.w3.org/2000/svg" xmlns:xlink="http://www.w3.org/1999/xlink" x="0px" y="0px"
	 width="100%" viewBox="0 0 2481 2482" enable-background="new 0 0 2481 2482" xml:space="preserve">
<path fill="#000000" opacity="1.000000" stroke="none" 
	d="
M1630.000000,2484.000000 
	C1086.666626,2484.000000 544.333313,2484.000000 2.000000,2484.000000 
	C2.000000,1656.666626 2.000000,829.333313 2.000000,2.000000 
	C829.333313,2.000000 1656.666626,2.000000 2484.000000,2.000000 
	C2484.000000,829.333313 2484.000000,1656.666626 2484.000000,2484.000000 
	C2199.666748,2484.000000 1915.333374,2484.000000 1630.000000,2484.000000 
M1180.314575,1077.932129 
	C1162.275024,1083.705811 1144.085449,1086.164673 1125.235962,1081.864624 
	C1100.130249,1076.137207 1078.629639,1064.576538 1061.562988,1044.992188 
	C1044.873291,1025.840454 1035.240723,1003.239014 1030.533691,978.769470 
	C1024.086792,945.255005 1006.722351,919.200073 979.996399,898.800537 
	C945.000366,872.088440 907.004150,859.915100 862.974915,872.969666 
	C848.374573,877.298645 833.158386,879.117371 817.585938,876.274414 
	C796.068726,872.346008 777.960938,862.977051 764.020569,846.008240 
	C755.427795,835.548584 750.059204,823.398315 745.954956,810.614136 
	C745.021790,807.707397 743.808228,804.890625 742.034912,800.216858 
	C740.334961,804.492126 739.401428,806.584534 738.660278,808.743042 
	C729.942566,834.129700 725.685852,860.384949 724.229797,887.070007 
	C722.109619,925.926147 729.384827,963.382141 743.118225,999.553162 
	C757.132507,1036.463745 777.950745,1069.171509 806.221985,1096.915283 
	C829.990540,1120.240356 857.295898,1138.405640 887.286743,1152.818359 
	C934.531982,1175.522827 984.068481,1181.329102 1035.364136,1172.982300 
	C1076.597168,1166.272949 1113.763306,1149.494873 1146.738892,1123.965332 
	C1158.515747,1114.847900 1169.032837,1104.103149 1180.497803,1093.872925 
	C1180.497803,1093.872925 1180.413086,1093.210205 1180.413086,1093.210205 
	C1180.413086,1093.210205 1179.834106,1093.802979 1178.346191,1093.870850 
	C1176.161865,1094.655518 1173.863403,1095.215210 1171.810303,1096.258057 
	C1132.974121,1115.984009 1091.778198,1120.755249 1049.371338,1113.728760 
	C1003.544617,1106.135742 963.232727,1086.709106 930.470947,1053.073486 
	C928.185791,1050.727417 922.711182,1048.045776 925.970947,1044.565796 
	C930.130737,1040.124878 932.828796,1046.244751 935.172607,1048.645020 
	C949.738342,1063.562378 966.301147,1075.767334 984.702820,1085.387329 
	C1020.034302,1103.857910 1057.576294,1111.160767 1097.447144,1108.429932 
	C1121.829468,1106.759888 1144.604858,1100.368530 1166.253296,1089.601685 
	C1172.038574,1086.724365 1176.987305,1082.164551 1183.168579,1078.299927 
	C1183.810791,1077.835449 1184.453003,1077.370972 1185.095215,1076.906616 
	C1184.023315,1077.215332 1182.951416,1077.524048 1180.314575,1077.932129 
M1435.426514,1549.794800 
	C1457.032593,1535.121094 1476.233521,1517.775635 1493.067017,1497.814331 
	C1510.135864,1477.573975 1524.360840,1455.581421 1534.718018,1431.114136 
	C1546.770508,1402.642456 1553.704346,1373.075684 1556.557983,1342.257324 
	C1558.600952,1320.194458 1558.209595,1298.346313 1555.074341,1276.572388 
	C1549.637695,1238.815063 1536.468994,1203.734375 1516.492188,1171.260498 
	C1482.302002,1115.681152 1433.511597,1079.316895 1370.953491,1061.239136 
	C1339.515259,1052.154175 1307.328735,1050.603394 1274.907593,1052.384277 
	C1266.215942,1052.861694 1257.599609,1054.708252 1247.344971,1056.152222 
	C1264.315308,1060.889771 1279.664917,1064.148682 1294.270386,1069.455688 
	C1329.862061,1082.388428 1359.096191,1104.584473 1382.915405,1133.873901 
	C1408.063721,1164.797852 1424.215698,1199.768433 1429.200562,1239.548828 
	C1429.441528,1241.472168 1428.386353,1243.557983 1427.938354,1245.551758 
	C1421.669067,1244.706177 1422.407837,1240.354614 1421.906006,1236.979980 
	C1418.185669,1211.962769 1410.046631,1188.483276 1397.265869,1166.678955 
	C1367.255249,1115.479980 1323.902832,1082.063110 1265.606812,1069.162231 
	C1256.924927,1067.240967 1247.866211,1064.715698 1238.622559,1067.700562 
	C1241.106934,1069.555664 1243.707520,1070.753662 1246.389038,1071.729370 
	C1292.534912,1088.520386 1316.141724,1128.213257 1318.140869,1173.894531 
	C1319.095825,1195.714111 1313.926025,1216.200684 1304.254395,1235.620728 
	C1295.931030,1252.333740 1292.074463,1269.994751 1291.780029,1288.629883 
	C1291.273193,1320.709351 1301.234253,1349.536743 1318.151611,1376.332520 
	C1331.270630,1397.111816 1349.566162,1411.492554 1372.592407,1419.687378 
	C1390.867676,1426.191528 1406.877930,1436.015991 1419.734375,1450.544434 
	C1437.248657,1470.336792 1445.267334,1493.218506 1440.472046,1519.707764 
	C1438.641235,1529.821289 1436.046753,1539.796631 1433.478638,1550.031982 
	C1433.478638,1550.031982 1433.560913,1550.598633 1433.560913,1550.598633 
	C1433.560913,1550.598633 1434.087524,1550.109253 1435.426514,1549.794800 
M1188.115479,1044.438599 
	C1188.115479,1044.438599 1188.696045,1044.357910 1188.696045,1044.357910 
	C1188.696045,1044.357910 1188.176270,1043.854492 1187.948364,1042.473022 
	C1186.030151,1039.364746 1184.149536,1036.232666 1182.187500,1033.152344 
	C1170.825439,1015.315430 1163.735840,995.754028 1164.534912,974.707947 
	C1165.459351,950.358887 1173.438599,927.755188 1187.751587,907.658569 
	C1200.629272,889.577454 1218.155884,877.238953 1237.075073,866.277710 
	C1245.929810,861.147583 1254.850708,855.372742 1261.965820,848.142456 
	C1282.794556,826.976624 1295.925415,801.346069 1301.459351,772.117737 
	C1307.947144,737.851501 1305.299072,705.137695 1283.963257,675.792725 
	C1280.661377,671.251465 1278.154297,666.073120 1275.699097,660.986877 
	C1268.960815,647.028015 1264.471558,632.207336 1264.782715,616.757568 
	C1265.160645,597.991943 1271.246216,580.598938 1283.924927,566.420654 
	C1290.741333,558.798035 1299.027100,552.494019 1306.597778,545.538391 
	C1309.063599,543.272949 1313.183838,541.965027 1311.887939,536.166809 
	C1296.270752,537.483154 1280.730591,538.195862 1265.357544,540.195068 
	C1207.860107,547.672485 1157.363281,570.571411 1114.760376,610.168152 
	C1076.904785,645.352600 1049.189331,687.010193 1034.624146,736.955750 
	C1026.063477,766.311218 1023.218018,796.274231 1023.691223,826.798706 
	C1024.250366,862.865784 1033.374023,896.686584 1049.564819,928.506653 
	C1072.828369,974.227234 1107.729004,1009.293030 1151.616821,1035.481079 
	C1158.657471,1039.682129 1166.471924,1042.586182 1174.076294,1046.475098 
	C1174.076294,1046.475098 1174.662476,1046.442017 1174.662476,1046.442017 
	C1174.662476,1046.442017 1174.063354,1045.950317 1173.468994,1044.753418 
	C1171.680420,1042.782837 1169.971191,1040.732788 1168.091187,1038.853760 
	C1146.739868,1017.512573 1131.473999,992.334412 1121.672119,963.918030 
	C1112.685913,937.865845 1108.943237,911.005676 1109.720337,883.360046 
	C1110.609009,851.746887 1119.447021,822.407471 1133.066284,794.241760 
	C1134.447876,791.384521 1135.703247,787.840942 1140.174316,788.740417 
	C1140.972534,794.072327 1141.016602,794.094116 1138.710693,798.758240 
	C1120.880981,834.822021 1113.546509,872.667725 1117.592773,912.930542 
	C1121.535278,952.161255 1135.092407,987.308167 1159.673340,1018.007324 
	C1167.691162,1028.020752 1175.503540,1038.663330 1188.115479,1044.438599 
M1054.707642,1479.802612 
	C1094.378052,1470.058228 1130.668579,1453.375977 1162.623169,1427.621582 
	C1190.958618,1404.784546 1214.503418,1377.866699 1231.960327,1345.901001 
	C1256.279785,1301.369507 1265.227905,1253.810913 1260.473511,1203.239746 
	C1257.339966,1169.909546 1247.273438,1138.806152 1233.999023,1108.473633 
	C1232.981934,1106.149414 1232.566650,1102.659180 1228.447632,1102.294067 
	C1228.447632,1105.075562 1228.192749,1107.392822 1228.486328,1109.638306 
	C1232.426758,1139.777100 1230.408691,1169.321289 1221.021851,1198.413940 
	C1207.749023,1239.550293 1183.763306,1273.298218 1151.274658,1301.267822 
	C1139.618652,1311.302490 1126.668579,1319.519287 1112.562134,1325.776489 
	C1109.480347,1327.143555 1106.200073,1329.663574 1101.618164,1324.435547 
	C1145.421021,1303.233643 1178.901611,1272.263550 1200.671021,1229.088257 
	C1222.671387,1185.454590 1228.266968,1140.407593 1215.152466,1093.281006 
	C1214.104736,1095.438232 1214.008789,1097.685059 1213.812378,1099.923340 
	C1212.645996,1113.210327 1211.467651,1126.571045 1205.595581,1138.783813 
	C1184.093384,1183.504150 1148.412109,1206.788940 1098.808960,1208.023071 
	C1086.551758,1208.328003 1074.257568,1206.576904 1061.967529,1206.237305 
	C1027.032471,1205.271851 996.618164,1217.605469 970.075745,1239.447632 
	C949.472473,1256.402344 932.166504,1276.375366 925.529419,1303.048462 
	C922.422180,1315.535767 921.656738,1328.621460 920.054504,1341.463989 
	C917.485840,1362.053955 911.268433,1381.255493 897.417664,1397.073853 
	C880.445312,1416.457397 858.500122,1425.517700 832.907593,1426.170898 
	C827.778198,1426.301758 822.652832,1426.588745 816.693359,1426.838745 
	C825.850830,1439.017212 865.053955,1461.204468 896.734558,1472.524902 
	C948.051514,1490.861938 1000.245300,1492.363281 1054.707642,1479.802612 
M1427.525269,800.281860 
	C1416.494629,802.826660 1405.352783,804.970581 1394.453613,807.989929 
	C1359.215210,817.751892 1327.818726,834.826721 1300.362671,858.954834 
	C1251.952393,901.496948 1225.922241,956.162292 1214.460327,1018.616333 
	C1214.188721,1020.096375 1214.426270,1021.669861 1214.426270,1023.199707 
	C1216.645752,1021.978760 1217.688843,1020.420593 1218.515381,1018.755127 
	C1229.307739,997.010620 1243.533325,977.740906 1261.710205,961.726562 
	C1309.704346,919.441956 1365.910645,901.418640 1429.552979,906.314392 
	C1434.511353,906.695801 1439.449463,907.705200 1444.313721,908.794495 
	C1446.767334,909.344055 1449.730591,910.103577 1448.767822,915.377930 
	C1445.881348,915.224121 1442.821777,915.168945 1439.784668,914.878906 
	C1430.849731,914.025818 1421.937500,912.477356 1412.992065,912.275574 
	C1376.999634,911.463684 1343.108032,919.467224 1311.068726,936.221252 
	C1274.163330,955.519958 1245.874512,983.098755 1227.064209,1020.264771 
	C1224.299561,1025.727051 1222.322754,1031.588135 1219.981445,1037.264648 
	C1220.606567,1037.594971 1221.231812,1037.925293 1221.857056,1038.255615 
	C1223.529663,1036.403931 1225.235229,1034.580688 1226.868896,1032.695068 
	C1231.441650,1027.417358 1235.483887,1021.559814 1240.623535,1016.913513 
	C1267.231812,992.859741 1298.955566,985.902222 1333.607300,990.978516 
	C1358.738525,994.660156 1379.805542,1007.005737 1398.947998,1023.410645 
	C1409.255859,1032.244263 1419.955078,1041.212036 1431.871460,1047.462158 
	C1462.895508,1063.734131 1496.165649,1065.408813 1530.170166,1059.031494 
	C1558.963745,1053.631104 1582.053711,1039.248535 1600.046997,1016.149109 
	C1605.127563,1009.626770 1611.064819,1003.606873 1617.344238,998.212219 
	C1642.849243,976.300354 1671.903564,969.476501 1703.910156,980.681030 
	C1714.117188,984.254150 1723.255737,990.898499 1732.843140,996.209961 
	C1735.307861,997.575317 1737.620239,999.215698 1741.297607,1001.552734 
	C1741.040283,998.579773 1741.228394,997.240906 1740.786011,996.160034 
	C1732.087769,974.909912 1724.524292,953.178894 1712.627686,933.324097 
	C1699.886353,912.059753 1685.166016,892.264709 1667.443970,875.049133 
	C1644.832520,853.083923 1618.794189,835.915955 1589.999756,822.768005 
	C1553.707031,806.196411 1515.591675,797.584412 1475.948975,796.457825 
	C1460.433228,796.016907 1444.826538,798.781128 1427.525269,800.281860 
M782.997986,1701.823120 
	C761.672852,1701.814087 740.346741,1701.927002 719.023132,1701.740845 
	C709.368713,1701.656616 707.958679,1700.145386 707.895813,1690.666138 
	C707.780884,1673.340454 707.770874,1656.011963 707.975647,1638.687744 
	C708.026184,1634.408813 708.863098,1630.100586 709.704163,1625.878662 
	C711.026184,1619.242432 715.381531,1615.544678 721.929993,1614.336792 
	C724.216614,1613.915161 726.907532,1614.236206 728.715271,1613.103394 
	C730.303223,1612.108154 731.770508,1609.529053 731.715393,1607.696777 
	C731.660828,1605.880981 730.002014,1603.549194 728.368530,1602.512817 
	C726.896301,1601.578979 724.505981,1601.987915 722.520203,1601.983887 
	C702.531006,1601.943237 682.541809,1601.937744 662.552551,1601.928955 
	C660.888184,1601.928223 659.220337,1601.914429 657.560181,1602.011475 
	C653.138184,1602.270142 652.108215,1605.142456 652.391418,1608.922363 
	C652.739990,1613.575317 656.253357,1613.443970 659.641296,1613.906494 
	C669.844421,1615.298950 673.682922,1618.694946 675.697144,1628.674927 
	C676.811035,1634.193604 677.701050,1639.870117 677.721130,1645.479126 
	C677.882080,1690.461182 677.938843,1735.444824 677.676697,1780.426025 
	C677.636414,1787.327393 676.186523,1794.303955 674.682068,1801.089233 
	C673.238708,1807.598511 668.573242,1811.188965 661.904907,1811.979248 
	C660.252869,1812.174805 658.581848,1812.203491 656.922607,1812.345093 
	C653.112976,1812.669922 651.947998,1815.051392 652.029663,1818.522339 
	C652.117920,1822.272583 654.179321,1823.897949 657.694275,1824.020264 
	C659.356079,1824.078247 661.022949,1823.977783 662.687500,1823.978027 
	C683.011414,1823.980835 703.335327,1824.001221 723.659241,1823.979492 
	C725.975098,1823.977051 728.639954,1824.405029 730.500854,1823.420044 
	C732.123596,1822.561157 733.701233,1819.995483 733.714111,1818.172607 
	C733.727051,1816.348877 732.106628,1814.122314 730.570435,1812.814331 
	C729.520874,1811.920776 727.384521,1812.321411 725.738708,1812.107788 
	C714.295593,1810.623657 711.533142,1808.182129 709.159180,1796.969849 
	C708.472961,1793.728882 707.969421,1790.380615 707.950256,1787.078247 
	C707.836121,1767.420044 707.847656,1747.760498 707.942261,1728.102051 
	C707.952820,1725.901489 708.751099,1723.704590 709.130493,1721.778198 
	C722.277710,1718.684814 816.235779,1719.167969 826.148560,1722.664795 
	C826.148560,1727.450439 826.176697,1732.717407 826.143433,1737.984253 
	C826.038147,1754.641846 826.389526,1771.323608 825.547607,1787.944580 
	C825.224060,1794.333618 823.103027,1801.086060 820.077332,1806.752563 
	C817.186829,1812.165894 810.547546,1812.031250 804.827271,1812.382690 
	C800.981506,1812.618774 799.909119,1815.187866 800.038635,1818.620239 
	C800.156250,1821.737061 801.598511,1823.627563 804.799561,1823.914429 
	C806.123230,1824.033081 807.458618,1824.059082 808.788757,1824.060669 
	C830.110413,1824.084839 851.432068,1824.112427 872.753723,1824.091187 
	C874.735107,1824.089233 877.154785,1824.402100 878.580811,1823.420776 
	C880.176147,1822.322754 881.730103,1819.909302 881.715393,1818.080933 
	C881.700806,1816.260376 880.041870,1814.064209 878.487183,1812.779053 
	C877.418396,1811.895874 875.291565,1812.324097 873.646362,1812.101929 
	C863.942566,1810.791992 859.774414,1807.542358 858.232422,1798.002563 
	C856.805542,1789.175171 856.009827,1780.154175 855.955444,1771.212280 
	C855.718445,1732.233276 855.754578,1693.251343 855.934692,1654.271729 
	C855.971436,1646.318604 856.922729,1638.357300 857.693115,1630.423096 
	C858.654846,1620.518677 863.623962,1614.338623 874.134766,1613.804688 
	C878.227539,1613.596924 880.140137,1611.615723 879.983337,1607.454468 
	C879.815247,1602.992432 877.023010,1601.908691 873.288452,1601.937378 
	C868.291809,1601.975830 863.295593,1602.153809 858.299500,1602.141113 
	C841.307617,1602.098145 824.315857,1601.999634 807.324097,1601.917480 
	C803.667786,1601.899780 800.640442,1602.671753 800.358093,1607.157959 
	C800.108093,1611.129883 801.679749,1613.100586 805.865540,1613.844482 
	C820.741150,1616.488403 822.153809,1618.002197 824.724915,1632.419800 
	C825.306946,1635.682983 825.749756,1639.015991 825.793152,1642.322876 
	C825.998596,1657.979980 826.124146,1673.639038 826.116821,1689.297485 
	C826.111938,1699.731812 824.613159,1701.365845 813.982727,1701.711670 
	C804.329529,1702.025635 794.659119,1701.806519 782.997986,1701.823120 
M1151.331909,1818.229370 
	C1153.046509,1822.412598 1156.016113,1824.308960 1160.672119,1824.098511 
	C1167.323853,1823.797729 1173.994263,1823.858643 1180.656616,1823.857422 
	C1189.316406,1823.855835 1197.976440,1823.991821 1206.635986,1823.969849 
	C1209.701172,1823.962036 1211.682251,1822.428223 1211.922485,1819.196411 
	C1212.161011,1815.985718 1211.741089,1813.098145 1207.813599,1812.388184 
	C1193.573242,1809.813599 1183.448486,1800.662354 1173.715332,1790.953857 
	C1148.946533,1766.247803 1124.112671,1741.605347 1099.540405,1716.704956 
	C1086.343872,1703.332397 1082.679565,1706.072388 1100.001221,1689.374878 
	C1121.810425,1668.351562 1143.836548,1647.549438 1165.995728,1626.895142 
	C1173.657349,1619.754272 1182.645020,1614.651367 1193.446411,1613.847046 
	C1197.351440,1613.556274 1199.713501,1612.171021 1199.674072,1607.835815 
	C1199.628052,1602.765503 1196.448853,1601.830078 1192.354858,1601.913818 
	C1191.022827,1601.941040 1189.691895,1602.068848 1188.360596,1602.066772 
	C1170.703857,1602.038696 1153.046997,1601.987671 1135.390259,1601.965454 
	C1133.063354,1601.962524 1130.708618,1601.885620 1128.415527,1602.199097 
	C1125.082397,1602.654907 1123.923584,1605.270020 1124.500244,1608.055664 
	C1124.903320,1610.003540 1126.436890,1611.914429 1127.932861,1613.357056 
	C1128.687988,1614.085205 1130.492676,1613.668701 1131.803955,1613.884888 
	C1141.006348,1615.401367 1142.451660,1619.024414 1136.567627,1626.447632 
	C1133.058472,1630.874878 1129.266357,1635.090088 1125.436768,1639.248901 
	C1109.879028,1656.144165 1094.370728,1673.087524 1078.607666,1689.789673 
	C1071.654053,1697.157715 1064.135254,1703.992188 1056.016968,1711.903198 
	C1056.016968,1691.299805 1055.805420,1671.713989 1056.117188,1652.136597 
	C1056.249023,1643.858276 1057.163330,1635.553223 1058.304810,1627.341309 
	C1059.403687,1619.436523 1064.561401,1615.139160 1072.384155,1614.023804 
	C1074.029297,1613.789185 1075.708618,1613.797852 1077.357666,1613.582520 
	C1080.675659,1613.149658 1081.670898,1610.908081 1081.647095,1607.906006 
	C1081.623657,1604.952515 1080.724609,1602.541260 1077.406738,1602.175537 
	C1075.105591,1601.921753 1072.757690,1602.075439 1070.430664,1602.074707 
	C1051.439941,1602.068848 1032.449097,1602.071655 1013.458374,1602.064819 
	C1011.461670,1602.064087 1009.439026,1601.801392 1007.473511,1602.036621 
	C1002.887268,1602.585693 1000.360046,1606.656006 1002.591675,1610.555664 
	C1003.513855,1612.166992 1006.154907,1613.527710 1008.120117,1613.685791 
	C1018.135986,1614.491577 1023.030029,1620.336426 1024.358643,1629.638550 
	C1025.249390,1635.875122 1026.045776,1642.191650 1026.067505,1648.475220 
	C1026.213989,1690.788696 1026.210938,1733.103027 1026.066040,1775.416504 
	C1026.044434,1781.702881 1025.526367,1788.081177 1024.360352,1794.251099 
	C1021.722229,1808.210815 1020.044556,1809.581177 1005.943665,1812.247925 
	C1000.959290,1813.190552 998.291260,1817.966309 1001.283386,1821.510254 
	C1002.679443,1823.163574 1005.872681,1823.988403 1008.260925,1824.007812 
	C1030.578735,1824.189209 1052.898560,1824.118164 1075.217773,1824.104614 
	C1076.546875,1824.103760 1077.884766,1824.043945 1079.203247,1823.884766 
	C1082.486450,1823.488281 1083.598633,1821.315918 1083.641846,1818.301147 
	C1083.683960,1815.353394 1082.870972,1812.937500 1079.538330,1812.480591 
	C1077.236328,1812.165039 1074.876709,1812.282593 1072.567871,1812.001221 
	C1064.776733,1811.052002 1060.300415,1807.400879 1058.535889,1799.915894 
	C1057.395508,1795.078125 1056.405396,1790.083252 1056.315308,1785.141113 
	C1055.956787,1765.490112 1055.940063,1745.832275 1055.917236,1726.176758 
	C1055.914917,1724.188232 1056.724487,1722.198730 1057.362793,1719.266113 
	C1059.586914,1721.199463 1060.890259,1722.203003 1062.044800,1723.355591 
	C1079.963867,1741.246704 1098.184326,1758.851196 1115.657837,1777.168213 
	C1127.815552,1789.912964 1138.940918,1803.642334 1151.331909,1818.229370 
M1289.744385,1370.865601 
	C1280.439697,1350.416382 1276.081177,1328.710815 1273.254272,1306.244263 
	C1247.894165,1374.709473 1203.201172,1427.333008 1141.704468,1467.578369 
	C1151.400757,1468.353271 1159.621948,1469.387207 1167.864502,1469.602173 
	C1199.790161,1470.435059 1231.723633,1470.963623 1263.652344,1471.689453 
	C1290.583618,1472.301880 1317.515015,1472.940186 1344.441162,1473.742310 
	C1360.043701,1474.207275 1375.634033,1475.077393 1391.234131,1475.642334 
	C1396.718994,1475.840942 1402.217163,1475.674072 1408.289429,1475.674072 
	C1407.609497,1473.377075 1407.565674,1472.330811 1407.052490,1471.626953 
	C1394.619385,1454.572754 1379.469238,1440.510498 1358.989380,1434.329712 
	C1326.069458,1424.394653 1304.124268,1403.017334 1289.744385,1370.865601 
M1584.145386,1065.373901 
	C1546.323120,1089.868286 1505.328735,1092.212524 1462.185425,1082.807495 
	C1523.269775,1126.247803 1563.319336,1182.461304 1571.480591,1258.783813 
	C1582.081055,1230.203613 1591.991577,1201.693726 1601.809692,1173.152100 
	C1611.755371,1144.240112 1621.671265,1115.317627 1631.486328,1086.361084 
	C1641.094482,1058.014526 1651.444092,1029.902588 1660.673096,1000.018738 
	C1640.563354,1007.041992 1626.194580,1018.588928 1615.414917,1034.317261 
	C1607.181152,1046.331055 1597.052856,1056.150024 1584.145386,1065.373901 
M1599.129395,1789.945923 
	C1594.179443,1802.078003 1586.750977,1811.182495 1572.528564,1812.542236 
	C1571.080933,1812.680664 1568.956299,1814.783325 1568.708252,1816.240479 
	C1568.362183,1818.271729 1568.821899,1821.263062 1570.170654,1822.533325 
	C1571.574829,1823.855835 1574.444092,1823.996460 1576.676147,1824.008423 
	C1596.337646,1824.113770 1616.000122,1824.079102 1635.662231,1824.070068 
	C1636.991699,1824.069458 1638.333740,1824.034180 1639.647949,1823.853760 
	C1642.941895,1823.401733 1643.935181,1821.148804 1643.958984,1818.162598 
	C1643.982910,1815.159790 1642.987915,1812.887329 1639.688232,1812.467773 
	C1637.378906,1812.174316 1635.020874,1812.247192 1632.719116,1811.915771 
	C1625.288086,1810.845947 1622.111450,1807.489380 1622.014771,1800.004883 
	C1621.972412,1796.729370 1622.396240,1793.287354 1623.416748,1790.186890 
	C1627.579468,1777.539795 1631.829468,1764.911377 1636.479614,1752.437378 
	C1640.924194,1740.515137 1641.565308,1740.038818 1653.791748,1740.243652 
	C1673.419189,1740.572144 1693.037354,1741.463623 1712.664795,1741.790894 
	C1718.162720,1741.882568 1720.171265,1744.870972 1721.578735,1749.362671 
	C1725.962402,1763.351074 1730.713257,1777.229004 1734.853882,1791.287354 
	C1739.174072,1805.956055 1736.125244,1810.288574 1720.745850,1812.145996 
	C1716.946899,1812.604736 1714.365723,1813.591919 1714.329956,1817.993774 
	C1714.289429,1822.995483 1717.299438,1824.177246 1721.479980,1824.106812 
	C1726.477661,1824.022461 1731.475464,1823.847900 1736.472900,1823.860474 
	C1753.803345,1823.903809 1771.133667,1824.014282 1788.463989,1824.091431 
	C1792.421631,1824.109009 1795.859497,1823.544067 1795.990234,1818.367310 
	C1796.097900,1814.108154 1793.942627,1812.334717 1789.959106,1812.174194 
	C1781.508301,1811.833252 1776.735474,1806.770630 1773.656006,1799.492676 
	C1772.228760,1796.119995 1770.464844,1792.875000 1769.235718,1789.435425 
	C1749.054688,1732.965576 1728.837402,1676.508179 1708.850952,1619.969360 
	C1701.380493,1598.836914 1706.299072,1602.317871 1682.632324,1601.750977 
	C1676.629028,1601.607300 1673.259644,1604.052612 1671.582031,1609.550781 
	C1671.000366,1611.457642 1670.177124,1613.292603 1669.432373,1615.147827 
	C1646.220215,1672.961548 1623.004272,1730.773926 1599.129395,1789.945923 
M875.514709,1355.776245 
	C876.898743,1360.312744 878.282776,1364.849121 879.761292,1369.695312 
	C888.580017,1365.280884 891.462402,1358.247559 894.202576,1351.008667 
	C899.823547,1336.159424 900.017944,1320.427002 901.560852,1304.970703 
	C903.771729,1282.821289 911.189819,1263.030518 925.475830,1245.861816 
	C941.270508,1226.880249 960.940552,1212.861084 982.370850,1201.047241 
	C984.185669,1200.046753 985.830017,1198.737183 987.553528,1197.571167 
	C918.889709,1200.705566 859.749878,1179.852173 808.938416,1133.199341 
	C830.940247,1206.900635 852.942078,1280.601929 875.514709,1355.776245 
M1388.166870,696.925781 
	C1354.660278,671.345520 1321.153687,645.765259 1286.765991,619.512329 
	C1286.765991,621.954468 1286.588013,622.934998 1286.791992,623.828430 
	C1291.506836,644.484741 1299.897705,663.566772 1311.865112,681.016418 
	C1325.188965,700.444092 1332.412354,722.112305 1333.405029,745.353333 
	C1334.468262,770.240295 1327.378784,793.265564 1312.747314,813.724548 
	C1311.208740,815.876099 1309.932739,818.215515 1307.469971,822.183655 
	C1365.119507,788.982422 1422.926636,765.845032 1489.474121,774.656555 
	C1456.082642,749.038147 1422.691040,723.419739 1388.166870,696.925781 
M870.198792,813.332153 
	C852.006714,826.375488 832.997742,838.309692 815.679016,853.024841 
	C820.508545,854.557251 824.993958,855.536621 829.493286,855.605530 
	C847.585571,855.882812 865.098633,851.859558 882.493774,847.561768 
	C897.725891,843.798401 912.930176,841.454651 928.646667,843.750183 
	C955.575256,847.683167 978.848877,858.707214 996.886353,879.369507 
	C1003.603027,887.063538 1009.203125,895.732422 1014.282532,902.570251 
	C1011.138367,888.476807 1006.722534,872.819458 1004.343750,856.858582 
	C1001.956543,840.841858 1001.330017,824.537598 1000.428467,808.331726 
	C999.502441,791.686890 1000.878723,775.077698 1004.414673,758.825378 
	C1007.782227,743.347473 1012.283997,728.116333 1016.649353,711.388855 
	C967.393799,745.649475 919.368408,779.054382 870.198792,813.332153 
M1434.333984,1813.498413 
	C1436.698853,1811.660645 1439.067993,1809.828491 1441.427612,1807.984009 
	C1463.948486,1790.380615 1467.640015,1766.604126 1462.696533,1740.547729 
	C1460.482300,1728.876953 1452.513184,1720.124146 1442.643311,1714.205444 
	C1432.734985,1708.264038 1421.916626,1703.781982 1411.315186,1699.069824 
	C1398.861572,1693.534180 1386.007690,1688.863770 1373.739014,1682.962280 
	C1368.180664,1680.288696 1362.891602,1676.208008 1358.733154,1671.628174 
	C1345.850830,1657.440430 1349.490234,1635.681885 1366.052002,1626.417236 
	C1381.951904,1617.522583 1398.759644,1615.931152 1416.261597,1621.134766 
	C1430.148193,1625.263306 1439.325195,1633.908936 1443.092896,1648.077759 
	C1443.753174,1650.560669 1444.836548,1652.931030 1446.061646,1656.272949 
	C1450.162964,1655.110229 1453.726440,1654.100098 1457.177124,1653.121826 
	C1455.393677,1639.109131 1453.616821,1626.291382 1452.206299,1613.433594 
	C1451.722412,1609.023315 1449.511597,1607.063232 1445.492310,1606.050903 
	C1425.987183,1601.138794 1406.238159,1598.167603 1386.143799,1600.407715 
	C1366.920776,1602.550781 1350.769653,1610.880249 1337.609985,1625.478271 
	C1318.245483,1646.959351 1318.182739,1690.322266 1348.572144,1709.816650 
	C1361.099854,1717.852905 1374.798096,1722.652222 1388.535522,1727.758057 
	C1399.421143,1731.803589 1410.400879,1735.969238 1420.555786,1741.515503 
	C1433.871826,1748.788208 1440.153320,1763.271118 1436.953613,1775.960083 
	C1434.128174,1787.164673 1427.799438,1795.728882 1417.518921,1801.356323 
	C1403.481201,1809.040527 1388.628052,1810.223999 1373.054321,1808.073853 
	C1352.727173,1805.267822 1339.699341,1794.346313 1334.100220,1774.525391 
	C1332.849609,1770.098145 1331.769287,1765.622925 1330.313477,1760.027954 
	C1325.520264,1761.351685 1321.320435,1762.511475 1317.321045,1763.616089 
	C1319.109741,1782.240356 1320.783081,1799.664429 1322.516846,1817.715820 
	C1324.060181,1818.300781 1326.139648,1819.451782 1328.357300,1819.868896 
	C1340.426880,1822.138794 1352.487915,1824.515991 1364.631592,1826.318359 
	C1388.737305,1829.896118 1411.662354,1826.161743 1434.333984,1813.498413 
M1130.090454,1039.214966 
	C1098.531982,1017.774902 1071.965698,990.854187 1045.995605,960.250244 
	C1055.310913,1035.300415 1107.889893,1073.091309 1177.467651,1062.153931 
	C1161.072266,1056.811035 1145.698853,1049.407959 1130.090454,1039.214966 
M1124.330444,1185.062378 
	C1169.813599,1175.833984 1194.781372,1135.507080 1194.680420,1092.934570 
	C1192.768555,1095.447144 1191.507446,1097.164062 1190.185059,1098.832520 
	C1183.187744,1107.660645 1176.833862,1117.112427 1169.047729,1125.181030 
	C1142.365967,1152.830444 1109.476196,1170.224731 1073.057739,1181.445190 
	C1070.290161,1182.297974 1067.575073,1183.320923 1062.715210,1184.995361 
	C1084.436279,1188.389771 1103.573364,1188.891846 1124.330444,1185.062378 
M1236.306274,1040.303711 
	C1235.685425,1041.231567 1235.064575,1042.159546 1233.956055,1043.815918 
	C1290.516357,1032.430664 1345.660645,1029.373901 1400.077148,1051.153564 
	C1396.240479,1046.178101 1391.967285,1042.068237 1387.590332,1038.072266 
	C1365.969360,1018.333130 1340.871582,1008.182495 1311.258667,1010.193115 
	C1283.443848,1012.081726 1259.372559,1023.216675 1236.306274,1040.303711 
M1291.875000,1213.357788 
	C1295.331909,1195.041016 1297.160156,1176.702881 1294.391479,1158.046509 
	C1290.891724,1134.463989 1281.276245,1114.220947 1262.470947,1099.198486 
	C1254.391479,1092.744263 1245.929932,1086.309814 1234.030640,1084.161011 
	C1270.908936,1134.527222 1284.647339,1190.054810 1279.892944,1250.760986 
	C1286.127319,1239.450806 1288.416626,1227.089966 1291.875000,1213.357788 
M1224.653076,928.223633 
	C1231.837524,910.863892 1241.740601,895.079651 1254.520752,878.976074 
	C1193.793457,908.763062 1166.970947,974.030945 1201.630737,1029.080688 
	C1204.020386,1012.394531 1205.376343,995.474243 1209.087280,979.087402 
	C1212.880859,962.335693 1218.984497,946.107178 1224.653076,928.223633 
M1226.979370,1096.356445 
	C1226.979370,1096.356445 1227.122925,1095.878052 1227.122925,1095.878052 
	C1227.122925,1095.878052 1226.804199,1096.174805 1226.979370,1096.356445 
z"/>
<path fill="#0F3446" opacity="1.000000" stroke="none" 
	d="
M1053.895142,1479.988647 
	C1000.245300,1492.363281 948.051514,1490.861938 896.734558,1472.524902 
	C865.053955,1461.204468 825.850830,1439.017212 816.693359,1426.838745 
	C822.652832,1426.588745 827.778198,1426.301758 832.907593,1426.170898 
	C858.500122,1425.517700 880.445312,1416.457397 897.417664,1397.073853 
	C911.268433,1381.255493 917.485840,1362.053955 920.054504,1341.463989 
	C921.656738,1328.621460 922.422180,1315.535767 925.529419,1303.048462 
	C932.166504,1276.375366 949.472473,1256.402344 970.075745,1239.447632 
	C996.618164,1217.605469 1027.032471,1205.271851 1061.967529,1206.237305 
	C1074.257568,1206.576904 1086.551758,1208.328003 1098.808960,1208.023071 
	C1148.412109,1206.788940 1184.093384,1183.504150 1205.595581,1138.783813 
	C1211.467651,1126.571045 1212.645996,1113.210327 1213.812378,1099.923340 
	C1214.008789,1097.685059 1214.104736,1095.438232 1215.152466,1093.281006 
	C1228.266968,1140.407593 1222.671387,1185.454590 1200.671021,1229.088257 
	C1178.901611,1272.263550 1145.421021,1303.233643 1101.618164,1324.435547 
	C1106.200073,1329.663574 1109.480347,1327.143555 1112.562134,1325.776489 
	C1126.668579,1319.519287 1139.618652,1311.302490 1151.274658,1301.267822 
	C1183.763306,1273.298218 1207.749023,1239.550293 1221.021851,1198.413940 
	C1230.408691,1169.321289 1232.426758,1139.777100 1228.486328,1109.638306 
	C1228.192749,1107.392822 1228.447632,1105.075562 1228.447632,1102.294067 
	C1232.566650,1102.659180 1232.981934,1106.149414 1233.999023,1108.473633 
	C1247.273438,1138.806152 1257.339966,1169.909546 1260.473511,1203.239746 
	C1265.227905,1253.810913 1256.279785,1301.369507 1231.960327,1345.901001 
	C1214.503418,1377.866699 1190.958618,1404.784546 1162.623169,1427.621582 
	C1130.668579,1453.375977 1094.378052,1470.058228 1053.895142,1479.988647 
M1080.342163,1358.045776 
	C1084.388672,1358.340332 1088.435181,1358.634888 1092.481689,1358.929443 
	C1089.845215,1353.231934 1086.413574,1349.342896 1082.858276,1345.570312 
	C1075.272095,1337.520386 1074.616333,1333.510620 1079.289673,1323.237061 
	C1081.283325,1318.854126 1083.964966,1314.612549 1083.030518,1308.089233 
	C1077.957520,1309.992065 1073.636108,1311.374390 1069.513428,1313.203979 
	C1056.926025,1318.789795 1056.973389,1318.681641 1046.796509,1309.695068 
	C1043.328003,1306.632324 1040.667969,1301.735718 1033.900269,1302.032227 
	C1034.193848,1306.680786 1034.158203,1310.951904 1034.785278,1315.123413 
	C1036.521240,1326.671021 1034.310791,1331.236450 1024.024292,1336.951416 
	C1019.784485,1339.307007 1015.729431,1341.995483 1011.590332,1344.532471 
	C1011.669128,1345.237793 1011.747864,1345.943115 1011.826599,1346.648438 
	C1017.153687,1347.932983 1022.419800,1349.665405 1027.821655,1350.400269 
	C1036.515869,1351.583008 1041.630249,1355.533569 1042.731445,1364.758057 
	C1043.372803,1370.130981 1045.558594,1375.319458 1047.702026,1382.898193 
	C1050.925781,1377.956299 1053.533813,1375.250122 1054.641846,1372.027954 
	C1058.679443,1360.286987 1066.816162,1356.132324 1080.342163,1358.045776 
z"/>
<path fill="#0F3446" opacity="1.000000" stroke="none" 
	d="
M1187.907349,1044.115967 
	C1175.503540,1038.663330 1167.691162,1028.020752 1159.673340,1018.007324 
	C1135.092407,987.308167 1121.535278,952.161255 1117.592773,912.930542 
	C1113.546509,872.667725 1120.880981,834.822021 1138.710693,798.758240 
	C1141.016602,794.094116 1140.972534,794.072327 1140.174316,788.740417 
	C1135.703247,787.840942 1134.447876,791.384521 1133.066284,794.241760 
	C1119.447021,822.407471 1110.609009,851.746887 1109.720337,883.360046 
	C1108.943237,911.005676 1112.685913,937.865845 1121.672119,963.918030 
	C1131.473999,992.334412 1146.739868,1017.512573 1168.091187,1038.853760 
	C1169.971191,1040.732788 1171.680420,1042.782837 1173.730713,1045.385010 
	C1173.992554,1046.016602 1173.928711,1046.089844 1173.928711,1046.089844 
	C1166.471924,1042.586182 1158.657471,1039.682129 1151.616821,1035.481079 
	C1107.729004,1009.293030 1072.828369,974.227234 1049.564819,928.506653 
	C1033.374023,896.686584 1024.250366,862.865784 1023.691223,826.798706 
	C1023.218018,796.274231 1026.063477,766.311218 1034.624146,736.955750 
	C1049.189331,687.010193 1076.904785,645.352600 1114.760376,610.168152 
	C1157.363281,570.571411 1207.860107,547.672485 1265.357544,540.195068 
	C1280.730591,538.195862 1296.270752,537.483154 1311.887939,536.166809 
	C1313.183838,541.965027 1309.063599,543.272949 1306.597778,545.538391 
	C1299.027100,552.494019 1290.741333,558.798035 1283.924927,566.420654 
	C1271.246216,580.598938 1265.160645,597.991943 1264.782715,616.757568 
	C1264.471558,632.207336 1268.960815,647.028015 1275.699097,660.986877 
	C1278.154297,666.073120 1280.661377,671.251465 1283.963257,675.792725 
	C1305.299072,705.137695 1307.947144,737.851501 1301.459351,772.117737 
	C1295.925415,801.346069 1282.794556,826.976624 1261.965820,848.142456 
	C1254.850708,855.372742 1245.929810,861.147583 1237.075073,866.277710 
	C1218.155884,877.238953 1200.629272,889.577454 1187.751587,907.658569 
	C1173.438599,927.755188 1165.459351,950.358887 1164.534912,974.707947 
	C1163.735840,995.754028 1170.825439,1015.315430 1182.187500,1033.152344 
	C1184.149536,1036.232666 1186.030151,1039.364746 1187.993286,1043.227295 
	C1188.038208,1043.981567 1187.907349,1044.115967 1187.907349,1044.115967 
M1203.840698,759.087036 
	C1192.463745,747.414124 1192.319458,746.315125 1199.481445,731.232544 
	C1201.110474,727.802063 1202.463135,724.240295 1203.942993,720.738953 
	C1203.377686,720.227051 1202.812378,719.715210 1202.247070,719.203308 
	C1197.133057,721.283997 1191.835205,723.008057 1186.947632,725.528015 
	C1179.390137,729.424438 1173.147827,728.526611 1167.072632,722.460876 
	C1163.259766,718.653992 1159.431885,714.361145 1152.315918,712.902466 
	C1152.936157,720.005554 1153.299194,726.192200 1154.061157,732.329163 
	C1154.858276,738.749878 1152.547974,743.132446 1146.839600,746.245911 
	C1141.144897,749.351868 1135.750000,753.007324 1128.537109,757.463928 
	C1135.724243,759.291016 1140.777100,761.333069 1145.956055,761.730713 
	C1156.008057,762.502563 1160.648193,767.692383 1161.937012,777.344910 
	C1162.612427,782.403687 1164.613037,787.285522 1166.672974,794.575073 
	C1171.516235,786.586792 1175.225952,780.800781 1178.588501,774.819458 
	C1181.410767,769.798767 1185.062988,767.978088 1190.949585,769.064636 
	C1197.249756,770.227417 1203.802002,771.116638 1211.763672,768.636108 
	C1208.858765,765.052795 1206.848389,762.572754 1203.840698,759.087036 
z"/>
<path fill="#0F3446" opacity="1.000000" stroke="none" 
	d="
M1433.800293,1549.834961 
	C1436.046753,1539.796631 1438.641235,1529.821289 1440.472046,1519.707764 
	C1445.267334,1493.218506 1437.248657,1470.336792 1419.734375,1450.544434 
	C1406.877930,1436.015991 1390.867676,1426.191528 1372.592407,1419.687378 
	C1349.566162,1411.492554 1331.270630,1397.111816 1318.151611,1376.332520 
	C1301.234253,1349.536743 1291.273193,1320.709351 1291.780029,1288.629883 
	C1292.074463,1269.994751 1295.931030,1252.333740 1304.254395,1235.620728 
	C1313.926025,1216.200684 1319.095825,1195.714111 1318.140869,1173.894531 
	C1316.141724,1128.213257 1292.534912,1088.520386 1246.389038,1071.729370 
	C1243.707520,1070.753662 1241.106934,1069.555664 1238.622559,1067.700562 
	C1247.866211,1064.715698 1256.924927,1067.240967 1265.606812,1069.162231 
	C1323.902832,1082.063110 1367.255249,1115.479980 1397.265869,1166.678955 
	C1410.046631,1188.483276 1418.185669,1211.962769 1421.906006,1236.979980 
	C1422.407837,1240.354614 1421.669067,1244.706177 1427.938354,1245.551758 
	C1428.386353,1243.557983 1429.441528,1241.472168 1429.200562,1239.548828 
	C1424.215698,1199.768433 1408.063721,1164.797852 1382.915405,1133.873901 
	C1359.096191,1104.584473 1329.862061,1082.388428 1294.270386,1069.455688 
	C1279.664917,1064.148682 1264.315308,1060.889771 1247.344971,1056.152222 
	C1257.599609,1054.708252 1266.215942,1052.861694 1274.907593,1052.384277 
	C1307.328735,1050.603394 1339.515259,1052.154175 1370.953491,1061.239136 
	C1433.511597,1079.316895 1482.302002,1115.681152 1516.492188,1171.260498 
	C1536.468994,1203.734375 1549.637695,1238.815063 1555.074341,1276.572388 
	C1558.209595,1298.346313 1558.600952,1320.194458 1556.557983,1342.257324 
	C1553.704346,1373.075684 1546.770508,1402.642456 1534.718018,1431.114136 
	C1524.360840,1455.581421 1510.135864,1477.573975 1493.067017,1497.814331 
	C1476.233521,1517.775635 1457.032593,1535.121094 1434.687012,1549.881592 
	C1433.947510,1549.968384 1433.800293,1549.834961 1433.800293,1549.834961 
M1450.377808,1265.919434 
	C1446.970947,1267.217285 1443.460327,1268.296021 1440.175415,1269.851318 
	C1426.851929,1276.159302 1425.146118,1275.814819 1413.569946,1265.950806 
	C1410.314819,1263.177002 1407.920654,1258.662354 1401.560547,1258.295166 
	C1402.280518,1264.969727 1402.777588,1270.876709 1403.586670,1276.740601 
	C1404.541382,1283.659180 1403.186646,1288.870972 1396.112793,1292.311157 
	C1390.450806,1295.064819 1384.921143,1298.542236 1379.159912,1304.045410 
	C1386.793335,1305.841431 1392.855103,1307.402222 1398.977295,1308.671143 
	C1405.535156,1310.030640 1409.520752,1313.339722 1410.647461,1320.402832 
	C1411.613281,1326.457764 1413.747437,1332.326294 1415.364990,1338.277344 
	C1416.118164,1338.389160 1416.871338,1338.500977 1417.624390,1338.612793 
	C1420.369507,1333.831055 1423.078491,1329.027954 1425.867798,1324.272217 
	C1430.693604,1316.043945 1435.458008,1313.838135 1444.838745,1315.262207 
	C1449.919678,1316.033691 1455.046387,1317.052490 1461.338867,1314.632812 
	C1456.959229,1309.442017 1453.700317,1304.827759 1449.687622,1301.004395 
	C1444.006836,1295.591553 1443.379395,1290.032715 1446.579468,1283.056519 
	C1449.036987,1277.699463 1450.397339,1271.839233 1452.536621,1265.966797 
	C1452.536621,1265.966797 1452.425659,1265.393188 1452.425659,1265.393188 
	C1452.425659,1265.393188 1451.876099,1265.848999 1450.377808,1265.919434 
z"/>
<path fill="#0F3446" opacity="1.000000" stroke="none" 
	d="
M1428.393311,800.183716 
	C1444.826538,798.781128 1460.433228,796.016907 1475.948975,796.457825 
	C1515.591675,797.584412 1553.707031,806.196411 1589.999756,822.768005 
	C1618.794189,835.915955 1644.832520,853.083923 1667.443970,875.049133 
	C1685.166016,892.264709 1699.886353,912.059753 1712.627686,933.324097 
	C1724.524292,953.178894 1732.087769,974.909912 1740.786011,996.160034 
	C1741.228394,997.240906 1741.040283,998.579773 1741.297607,1001.552734 
	C1737.620239,999.215698 1735.307861,997.575317 1732.843140,996.209961 
	C1723.255737,990.898499 1714.117188,984.254150 1703.910156,980.681030 
	C1671.903564,969.476501 1642.849243,976.300354 1617.344238,998.212219 
	C1611.064819,1003.606873 1605.127563,1009.626770 1600.046997,1016.149109 
	C1582.053711,1039.248535 1558.963745,1053.631104 1530.170166,1059.031494 
	C1496.165649,1065.408813 1462.895508,1063.734131 1431.871460,1047.462158 
	C1419.955078,1041.212036 1409.255859,1032.244263 1398.947998,1023.410645 
	C1379.805542,1007.005737 1358.738525,994.660156 1333.607300,990.978516 
	C1298.955566,985.902222 1267.231812,992.859741 1240.623535,1016.913513 
	C1235.483887,1021.559814 1231.441650,1027.417358 1226.868896,1032.695068 
	C1225.235229,1034.580688 1223.529663,1036.403931 1221.857056,1038.255615 
	C1221.231812,1037.925293 1220.606567,1037.594971 1219.981445,1037.264648 
	C1222.322754,1031.588135 1224.299561,1025.727051 1227.064209,1020.264771 
	C1245.874512,983.098755 1274.163330,955.519958 1311.068726,936.221252 
	C1343.108032,919.467224 1376.999634,911.463684 1412.992065,912.275574 
	C1421.937500,912.477356 1430.849731,914.025818 1439.784668,914.878906 
	C1442.821777,915.168945 1445.881348,915.224121 1448.767822,915.377930 
	C1449.730591,910.103577 1446.767334,909.344055 1444.313721,908.794495 
	C1439.449463,907.705200 1434.511353,906.695801 1429.552979,906.314392 
	C1365.910645,901.418640 1309.704346,919.441956 1261.710205,961.726562 
	C1243.533325,977.740906 1229.307739,997.010620 1218.515381,1018.755127 
	C1217.688843,1020.420593 1216.645752,1021.978760 1214.426270,1023.199707 
	C1214.426270,1021.669861 1214.188721,1020.096375 1214.460327,1018.616333 
	C1225.922241,956.162292 1251.952393,901.496948 1300.362671,858.954834 
	C1327.818726,834.826721 1359.215210,817.751892 1394.453613,807.989929 
	C1405.352783,804.970581 1416.494629,802.826660 1428.393311,800.183716 
M1524.491943,902.041870 
	C1522.281128,902.746948 1519.973267,903.238220 1517.874512,904.190369 
	C1498.613647,912.928589 1501.559326,915.134521 1484.234253,899.551147 
	C1482.179565,897.703003 1480.338989,894.682800 1475.757202,896.984558 
	C1476.088257,902.224182 1475.811523,907.942322 1476.951538,913.362488 
	C1478.422852,920.357544 1476.413574,924.792908 1470.185303,928.163696 
	C1464.451904,931.266663 1459.123169,935.117432 1451.446533,940.026123 
	C1459.938477,942.066895 1465.887817,943.874512 1471.970337,944.860779 
	C1479.215698,946.035522 1483.049438,949.745483 1484.324829,957.048401 
	C1485.370850,963.038330 1487.484741,968.841858 1489.456543,975.916809 
	C1491.540161,973.567261 1492.550049,972.705139 1493.210449,971.628662 
	C1494.775146,969.077637 1496.278931,966.477661 1497.621948,963.804260 
	C1503.316895,952.468262 1507.224731,950.370178 1519.678589,951.700989 
	C1524.406372,952.206116 1529.267212,953.047119 1534.679321,950.684265 
	C1529.984497,945.022400 1526.203735,939.967041 1521.896973,935.408691 
	C1517.615723,930.877075 1517.371826,926.294006 1519.595825,920.763123 
	C1522.057373,914.641602 1523.901245,908.271729 1526.301270,901.925049 
	C1526.301270,901.925049 1526.310425,901.538818 1526.310425,901.538818 
	C1526.310425,901.538818 1525.992676,901.989441 1524.491943,902.041870 
z"/>
<path fill="#0F3446" opacity="1.000000" stroke="none" 
	d="
M1180.125000,1094.101196 
	C1169.032837,1104.103149 1158.515747,1114.847900 1146.738892,1123.965332 
	C1113.763306,1149.494873 1076.597168,1166.272949 1035.364136,1172.982300 
	C984.068481,1181.329102 934.531982,1175.522827 887.286743,1152.818359 
	C857.295898,1138.405640 829.990540,1120.240356 806.221985,1096.915283 
	C777.950745,1069.171509 757.132507,1036.463745 743.118225,999.553162 
	C729.384827,963.382141 722.109619,925.926147 724.229797,887.070007 
	C725.685852,860.384949 729.942566,834.129700 738.660278,808.743042 
	C739.401428,806.584534 740.334961,804.492126 742.034912,800.216858 
	C743.808228,804.890625 745.021790,807.707397 745.954956,810.614136 
	C750.059204,823.398315 755.427795,835.548584 764.020569,846.008240 
	C777.960938,862.977051 796.068726,872.346008 817.585938,876.274414 
	C833.158386,879.117371 848.374573,877.298645 862.974915,872.969666 
	C907.004150,859.915100 945.000366,872.088440 979.996399,898.800537 
	C1006.722351,919.200073 1024.086792,945.255005 1030.533691,978.769470 
	C1035.240723,1003.239014 1044.873291,1025.840454 1061.562988,1044.992188 
	C1078.629639,1064.576538 1100.130249,1076.137207 1125.235962,1081.864624 
	C1144.085449,1086.164673 1162.275024,1083.705811 1181.206909,1078.018799 
	C1182.099243,1078.105469 1182.320068,1078.377197 1182.320068,1078.377197 
	C1176.987305,1082.164551 1172.038574,1086.724365 1166.253296,1089.601685 
	C1144.604858,1100.368530 1121.829468,1106.759888 1097.447144,1108.429932 
	C1057.576294,1111.160767 1020.034302,1103.857910 984.702820,1085.387329 
	C966.301147,1075.767334 949.738342,1063.562378 935.172607,1048.645020 
	C932.828796,1046.244751 930.130737,1040.124878 925.970947,1044.565796 
	C922.711182,1048.045776 928.185791,1050.727417 930.470947,1053.073486 
	C963.232727,1086.709106 1003.544617,1106.135742 1049.371338,1113.728760 
	C1091.778198,1120.755249 1132.974121,1115.984009 1171.810303,1096.258057 
	C1173.863403,1095.215210 1176.161865,1094.655518 1179.161133,1093.913208 
	C1179.975952,1093.955566 1180.125000,1094.101196 1180.125000,1094.101196 
M879.953247,963.543884 
	C879.953247,963.543884 879.439636,963.598816 879.439636,963.598816 
	C879.439636,963.598816 879.903381,964.075439 879.830444,965.886658 
	C879.916504,969.880798 879.205750,974.094910 880.236633,977.828186 
	C883.449646,989.463806 878.339417,996.141052 868.200745,1000.478455 
	C866.076111,1001.387329 864.041199,1002.637207 862.200378,1004.039246 
	C860.573364,1005.278320 859.274780,1006.948486 856.993347,1009.287231 
	C864.154541,1010.985901 869.891235,1012.810852 875.767883,1013.623413 
	C883.161987,1014.645630 886.904297,1018.524902 888.210571,1025.706177 
	C889.316406,1031.785767 891.072205,1037.747070 893.117310,1046.123657 
	C896.927124,1040.018555 899.593018,1035.967651 902.037903,1031.787598 
	C909.552368,1018.939270 910.131409,1018.601379 924.943909,1020.440247 
	C926.919739,1020.685547 928.867493,1021.497375 930.822388,1021.477417 
	C932.870667,1021.456604 934.911987,1020.749268 938.271729,1020.080017 
	C934.615845,1015.273132 932.360535,1011.001648 928.948242,1008.082642 
	C920.895447,1001.193909 920.462769,993.860107 925.380249,985.021973 
	C927.654663,980.934143 930.403442,976.512512 928.598389,970.357483 
	C923.144531,972.520325 918.176575,974.298401 913.369141,976.437256 
	C903.684692,980.746094 902.115601,980.331116 893.867981,973.271729 
	C889.671814,969.680054 884.725281,966.965027 879.953247,963.543884 
z"/>
<path fill="#0F3344" opacity="1.000000" stroke="none" 
	d="
M783.997131,1701.822754 
	C794.659119,1701.806519 804.329529,1702.025635 813.982727,1701.711670 
	C824.613159,1701.365845 826.111938,1699.731812 826.116821,1689.297485 
	C826.124146,1673.639038 825.998596,1657.979980 825.793152,1642.322876 
	C825.749756,1639.015991 825.306946,1635.682983 824.724915,1632.419800 
	C822.153809,1618.002197 820.741150,1616.488403 805.865540,1613.844482 
	C801.679749,1613.100586 800.108093,1611.129883 800.358093,1607.157959 
	C800.640442,1602.671753 803.667786,1601.899780 807.324097,1601.917480 
	C824.315857,1601.999634 841.307617,1602.098145 858.299500,1602.141113 
	C863.295593,1602.153809 868.291809,1601.975830 873.288452,1601.937378 
	C877.023010,1601.908691 879.815247,1602.992432 879.983337,1607.454468 
	C880.140137,1611.615723 878.227539,1613.596924 874.134766,1613.804688 
	C863.623962,1614.338623 858.654846,1620.518677 857.693115,1630.423096 
	C856.922729,1638.357300 855.971436,1646.318604 855.934692,1654.271729 
	C855.754578,1693.251343 855.718445,1732.233276 855.955444,1771.212280 
	C856.009827,1780.154175 856.805542,1789.175171 858.232422,1798.002563 
	C859.774414,1807.542358 863.942566,1810.791992 873.646362,1812.101929 
	C875.291565,1812.324097 877.418396,1811.895874 878.487183,1812.779053 
	C880.041870,1814.064209 881.700806,1816.260376 881.715393,1818.080933 
	C881.730103,1819.909302 880.176147,1822.322754 878.580811,1823.420776 
	C877.154785,1824.402100 874.735107,1824.089233 872.753723,1824.091187 
	C851.432068,1824.112427 830.110413,1824.084839 808.788757,1824.060669 
	C807.458618,1824.059082 806.123230,1824.033081 804.799561,1823.914429 
	C801.598511,1823.627563 800.156250,1821.737061 800.038635,1818.620239 
	C799.909119,1815.187866 800.981506,1812.618774 804.827271,1812.382690 
	C810.547546,1812.031250 817.186829,1812.165894 820.077332,1806.752563 
	C823.103027,1801.086060 825.224060,1794.333618 825.547607,1787.944580 
	C826.389526,1771.323608 826.038147,1754.641846 826.143433,1737.984253 
	C826.176697,1732.717407 826.148560,1727.450439 826.148560,1722.664795 
	C816.235779,1719.167969 722.277710,1718.684814 709.130493,1721.778198 
	C708.751099,1723.704590 707.952820,1725.901489 707.942261,1728.102051 
	C707.847656,1747.760498 707.836121,1767.420044 707.950256,1787.078247 
	C707.969421,1790.380615 708.472961,1793.728882 709.159180,1796.969849 
	C711.533142,1808.182129 714.295593,1810.623657 725.738708,1812.107788 
	C727.384521,1812.321411 729.520874,1811.920776 730.570435,1812.814331 
	C732.106628,1814.122314 733.727051,1816.348877 733.714111,1818.172607 
	C733.701233,1819.995483 732.123596,1822.561157 730.500854,1823.420044 
	C728.639954,1824.405029 725.975098,1823.977051 723.659241,1823.979492 
	C703.335327,1824.001221 683.011414,1823.980835 662.687500,1823.978027 
	C661.022949,1823.977783 659.356079,1824.078247 657.694275,1824.020264 
	C654.179321,1823.897949 652.117920,1822.272583 652.029663,1818.522339 
	C651.947998,1815.051392 653.112976,1812.669922 656.922607,1812.345093 
	C658.581848,1812.203491 660.252869,1812.174805 661.904907,1811.979248 
	C668.573242,1811.188965 673.238708,1807.598511 674.682068,1801.089233 
	C676.186523,1794.303955 677.636414,1787.327393 677.676697,1780.426025 
	C677.938843,1735.444824 677.882080,1690.461182 677.721130,1645.479126 
	C677.701050,1639.870117 676.811035,1634.193604 675.697144,1628.674927 
	C673.682922,1618.694946 669.844421,1615.298950 659.641296,1613.906494 
	C656.253357,1613.443970 652.739990,1613.575317 652.391418,1608.922363 
	C652.108215,1605.142456 653.138184,1602.270142 657.560181,1602.011475 
	C659.220337,1601.914429 660.888184,1601.928223 662.552551,1601.928955 
	C682.541809,1601.937744 702.531006,1601.943237 722.520203,1601.983887 
	C724.505981,1601.987915 726.896301,1601.578979 728.368530,1602.512817 
	C730.002014,1603.549194 731.660828,1605.880981 731.715393,1607.696777 
	C731.770508,1609.529053 730.303223,1612.108154 728.715271,1613.103394 
	C726.907532,1614.236206 724.216614,1613.915161 721.929993,1614.336792 
	C715.381531,1615.544678 711.026184,1619.242432 709.704163,1625.878662 
	C708.863098,1630.100586 708.026184,1634.408813 707.975647,1638.687744 
	C707.770874,1656.011963 707.780884,1673.340454 707.895813,1690.666138 
	C707.958679,1700.145386 709.368713,1701.656616 719.023132,1701.740845 
	C740.346741,1701.927002 761.672852,1701.814087 783.997131,1701.822754 
z"/>
<path fill="#0F3344" opacity="1.000000" stroke="none" 
	d="
M1150.929688,1817.580566 
	C1138.940918,1803.642334 1127.815552,1789.912964 1115.657837,1777.168213 
	C1098.184326,1758.851196 1079.963867,1741.246704 1062.044800,1723.355591 
	C1060.890259,1722.203003 1059.586914,1721.199463 1057.362793,1719.266113 
	C1056.724487,1722.198730 1055.914917,1724.188232 1055.917236,1726.176758 
	C1055.940063,1745.832275 1055.956787,1765.490112 1056.315308,1785.141113 
	C1056.405396,1790.083252 1057.395508,1795.078125 1058.535889,1799.915894 
	C1060.300415,1807.400879 1064.776733,1811.052002 1072.567871,1812.001221 
	C1074.876709,1812.282593 1077.236328,1812.165039 1079.538330,1812.480591 
	C1082.870972,1812.937500 1083.683960,1815.353394 1083.641846,1818.301147 
	C1083.598633,1821.315918 1082.486450,1823.488281 1079.203247,1823.884766 
	C1077.884766,1824.043945 1076.546875,1824.103760 1075.217773,1824.104614 
	C1052.898560,1824.118164 1030.578735,1824.189209 1008.260925,1824.007812 
	C1005.872681,1823.988403 1002.679443,1823.163574 1001.283386,1821.510254 
	C998.291260,1817.966309 1000.959290,1813.190552 1005.943665,1812.247925 
	C1020.044556,1809.581177 1021.722229,1808.210815 1024.360352,1794.251099 
	C1025.526367,1788.081177 1026.044434,1781.702881 1026.066040,1775.416504 
	C1026.210938,1733.103027 1026.213989,1690.788696 1026.067505,1648.475220 
	C1026.045776,1642.191650 1025.249390,1635.875122 1024.358643,1629.638550 
	C1023.030029,1620.336426 1018.135986,1614.491577 1008.120117,1613.685791 
	C1006.154907,1613.527710 1003.513855,1612.166992 1002.591675,1610.555664 
	C1000.360046,1606.656006 1002.887268,1602.585693 1007.473511,1602.036621 
	C1009.439026,1601.801392 1011.461670,1602.064087 1013.458374,1602.064819 
	C1032.449097,1602.071655 1051.439941,1602.068848 1070.430664,1602.074707 
	C1072.757690,1602.075439 1075.105591,1601.921753 1077.406738,1602.175537 
	C1080.724609,1602.541260 1081.623657,1604.952515 1081.647095,1607.906006 
	C1081.670898,1610.908081 1080.675659,1613.149658 1077.357666,1613.582520 
	C1075.708618,1613.797852 1074.029297,1613.789185 1072.384155,1614.023804 
	C1064.561401,1615.139160 1059.403687,1619.436523 1058.304810,1627.341309 
	C1057.163330,1635.553223 1056.249023,1643.858276 1056.117188,1652.136597 
	C1055.805420,1671.713989 1056.016968,1691.299805 1056.016968,1711.903198 
	C1064.135254,1703.992188 1071.654053,1697.157715 1078.607666,1689.789673 
	C1094.370728,1673.087524 1109.879028,1656.144165 1125.436768,1639.248901 
	C1129.266357,1635.090088 1133.058472,1630.874878 1136.567627,1626.447632 
	C1142.451660,1619.024414 1141.006348,1615.401367 1131.803955,1613.884888 
	C1130.492676,1613.668701 1128.687988,1614.085205 1127.932861,1613.357056 
	C1126.436890,1611.914429 1124.903320,1610.003540 1124.500244,1608.055664 
	C1123.923584,1605.270020 1125.082397,1602.654907 1128.415527,1602.199097 
	C1130.708618,1601.885620 1133.063354,1601.962524 1135.390259,1601.965454 
	C1153.046997,1601.987671 1170.703857,1602.038696 1188.360596,1602.066772 
	C1189.691895,1602.068848 1191.022827,1601.941040 1192.354858,1601.913818 
	C1196.448853,1601.830078 1199.628052,1602.765503 1199.674072,1607.835815 
	C1199.713501,1612.171021 1197.351440,1613.556274 1193.446411,1613.847046 
	C1182.645020,1614.651367 1173.657349,1619.754272 1165.995728,1626.895142 
	C1143.836548,1647.549438 1121.810425,1668.351562 1100.001221,1689.374878 
	C1082.679565,1706.072388 1086.343872,1703.332397 1099.540405,1716.704956 
	C1124.112671,1741.605347 1148.946533,1766.247803 1173.715332,1790.953857 
	C1183.448486,1800.662354 1193.573242,1809.813599 1207.813599,1812.388184 
	C1211.741089,1813.098145 1212.161011,1815.985718 1211.922485,1819.196411 
	C1211.682251,1822.428223 1209.701172,1823.962036 1206.635986,1823.969849 
	C1197.976440,1823.991821 1189.316406,1823.855835 1180.656616,1823.857422 
	C1173.994263,1823.858643 1167.323853,1823.797729 1160.672119,1824.098511 
	C1156.016113,1824.308960 1153.046509,1822.412598 1150.929688,1817.580566 
z"/>
<path fill="#E3AB36" opacity="1.000000" stroke="none" 
	d="
M1290.035767,1371.571289 
	C1304.124268,1403.017334 1326.069458,1424.394653 1358.989380,1434.329712 
	C1379.469238,1440.510498 1394.619385,1454.572754 1407.052490,1471.626953 
	C1407.565674,1472.330811 1407.609497,1473.377075 1408.289429,1475.674072 
	C1402.217163,1475.674072 1396.718994,1475.840942 1391.234131,1475.642334 
	C1375.634033,1475.077393 1360.043701,1474.207275 1344.441162,1473.742310 
	C1317.515015,1472.940186 1290.583618,1472.301880 1263.652344,1471.689453 
	C1231.723633,1470.963623 1199.790161,1470.435059 1167.864502,1469.602173 
	C1159.621948,1469.387207 1151.400757,1468.353271 1141.704468,1467.578369 
	C1203.201172,1427.333008 1247.894165,1374.709473 1273.254272,1306.244263 
	C1276.081177,1328.710815 1280.439697,1350.416382 1290.035767,1371.571289 
z"/>
<path fill="#E3AB36" opacity="1.000000" stroke="none" 
	d="
M1584.718506,1064.931519 
	C1597.052856,1056.150024 1607.181152,1046.331055 1615.414917,1034.317261 
	C1626.194580,1018.588928 1640.563354,1007.041992 1660.673096,1000.018738 
	C1651.444092,1029.902588 1641.094482,1058.014526 1631.486328,1086.361084 
	C1621.671265,1115.317627 1611.755371,1144.240112 1601.809692,1173.152100 
	C1591.991577,1201.693726 1582.081055,1230.203613 1571.480591,1258.783813 
	C1563.319336,1182.461304 1523.269775,1126.247803 1462.185425,1082.807495 
	C1505.328735,1092.212524 1546.323120,1089.868286 1584.718506,1064.931519 
z"/>
<path fill="#0F3344" opacity="1.000000" stroke="none" 
	d="
M1599.458984,1789.266113 
	C1623.004272,1730.773926 1646.220215,1672.961548 1669.432373,1615.147827 
	C1670.177124,1613.292603 1671.000366,1611.457642 1671.582031,1609.550781 
	C1673.259644,1604.052612 1676.629028,1601.607300 1682.632324,1601.750977 
	C1706.299072,1602.317871 1701.380493,1598.836914 1708.850952,1619.969360 
	C1728.837402,1676.508179 1749.054688,1732.965576 1769.235718,1789.435425 
	C1770.464844,1792.875000 1772.228760,1796.119995 1773.656006,1799.492676 
	C1776.735474,1806.770630 1781.508301,1811.833252 1789.959106,1812.174194 
	C1793.942627,1812.334717 1796.097900,1814.108154 1795.990234,1818.367310 
	C1795.859497,1823.544067 1792.421631,1824.109009 1788.463989,1824.091431 
	C1771.133667,1824.014282 1753.803345,1823.903809 1736.472900,1823.860474 
	C1731.475464,1823.847900 1726.477661,1824.022461 1721.479980,1824.106812 
	C1717.299438,1824.177246 1714.289429,1822.995483 1714.329956,1817.993774 
	C1714.365723,1813.591919 1716.946899,1812.604736 1720.745850,1812.145996 
	C1736.125244,1810.288574 1739.174072,1805.956055 1734.853882,1791.287354 
	C1730.713257,1777.229004 1725.962402,1763.351074 1721.578735,1749.362671 
	C1720.171265,1744.870972 1718.162720,1741.882568 1712.664795,1741.790894 
	C1693.037354,1741.463623 1673.419189,1740.572144 1653.791748,1740.243652 
	C1641.565308,1740.038818 1640.924194,1740.515137 1636.479614,1752.437378 
	C1631.829468,1764.911377 1627.579468,1777.539795 1623.416748,1790.186890 
	C1622.396240,1793.287354 1621.972412,1796.729370 1622.014771,1800.004883 
	C1622.111450,1807.489380 1625.288086,1810.845947 1632.719116,1811.915771 
	C1635.020874,1812.247192 1637.378906,1812.174316 1639.688232,1812.467773 
	C1642.987915,1812.887329 1643.982910,1815.159790 1643.958984,1818.162598 
	C1643.935181,1821.148804 1642.941895,1823.401733 1639.647949,1823.853760 
	C1638.333740,1824.034180 1636.991699,1824.069458 1635.662231,1824.070068 
	C1616.000122,1824.079102 1596.337646,1824.113770 1576.676147,1824.008423 
	C1574.444092,1823.996460 1571.574829,1823.855835 1570.170654,1822.533325 
	C1568.821899,1821.263062 1568.362183,1818.271729 1568.708252,1816.240479 
	C1568.956299,1814.783325 1571.080933,1812.680664 1572.528564,1812.542236 
	C1586.750977,1811.182495 1594.179443,1802.078003 1599.458984,1789.266113 
M1670.540771,1663.600220 
	C1663.681152,1683.244141 1654.884399,1702.213135 1648.886719,1722.295288 
	C1662.650513,1725.390991 1703.210083,1724.795898 1710.988892,1721.651978 
	C1710.543091,1713.023560 1686.657471,1644.252808 1681.080078,1636.768066 
	C1677.593262,1645.654053 1674.354858,1653.907349 1670.540771,1663.600220 
z"/>
<path fill="#E3AB36" opacity="1.000000" stroke="none" 
	d="
M875.229309,1355.039795 
	C852.942078,1280.601929 830.940247,1206.900635 808.938416,1133.199341 
	C859.749878,1179.852173 918.889709,1200.705566 987.553528,1197.571167 
	C985.830017,1198.737183 984.185669,1200.046753 982.370850,1201.047241 
	C960.940552,1212.861084 941.270508,1226.880249 925.475830,1245.861816 
	C911.189819,1263.030518 903.771729,1282.821289 901.560852,1304.970703 
	C900.017944,1320.427002 899.823547,1336.159424 894.202576,1351.008667 
	C891.462402,1358.247559 888.580017,1365.280884 879.761292,1369.695312 
	C878.282776,1364.849121 876.898743,1360.312744 875.229309,1355.039795 
z"/>
<path fill="#E3AB36" opacity="1.000000" stroke="none" 
	d="
M1388.733154,697.363525 
	C1422.691040,723.419739 1456.082642,749.038147 1489.474121,774.656555 
	C1422.926636,765.845032 1365.119507,788.982422 1307.469971,822.183655 
	C1309.932739,818.215515 1311.208740,815.876099 1312.747314,813.724548 
	C1327.378784,793.265564 1334.468262,770.240295 1333.405029,745.353333 
	C1332.412354,722.112305 1325.188965,700.444092 1311.865112,681.016418 
	C1299.897705,663.566772 1291.506836,644.484741 1286.791992,623.828430 
	C1286.588013,622.934998 1286.765991,621.954468 1286.765991,619.512329 
	C1321.153687,645.765259 1354.660278,671.345520 1388.733154,697.363525 
z"/>
<path fill="#E3AB36" opacity="1.000000" stroke="none" 
	d="
M870.770874,812.895752 
	C919.368408,779.054382 967.393799,745.649475 1016.649353,711.388855 
	C1012.283997,728.116333 1007.782227,743.347473 1004.414673,758.825378 
	C1000.878723,775.077698 999.502441,791.686890 1000.428467,808.331726 
	C1001.330017,824.537598 1001.956543,840.841858 1004.343750,856.858582 
	C1006.722534,872.819458 1011.138367,888.476807 1014.282532,902.570251 
	C1009.203125,895.732422 1003.603027,887.063538 996.886353,879.369507 
	C978.848877,858.707214 955.575256,847.683167 928.646667,843.750183 
	C912.930176,841.454651 897.725891,843.798401 882.493774,847.561768 
	C865.098633,851.859558 847.585571,855.882812 829.493286,855.605530 
	C824.993958,855.536621 820.508545,854.557251 815.679016,853.024841 
	C832.997742,838.309692 852.006714,826.375488 870.770874,812.895752 
z"/>
<path fill="#0F3344" opacity="1.000000" stroke="none" 
	d="
M1433.713379,1813.876221 
	C1411.662354,1826.161743 1388.737305,1829.896118 1364.631592,1826.318359 
	C1352.487915,1824.515991 1340.426880,1822.138794 1328.357300,1819.868896 
	C1326.139648,1819.451782 1324.060181,1818.300781 1322.516846,1817.715820 
	C1320.783081,1799.664429 1319.109741,1782.240356 1317.321045,1763.616089 
	C1321.320435,1762.511475 1325.520264,1761.351685 1330.313477,1760.027954 
	C1331.769287,1765.622925 1332.849609,1770.098145 1334.100220,1774.525391 
	C1339.699341,1794.346313 1352.727173,1805.267822 1373.054321,1808.073853 
	C1388.628052,1810.223999 1403.481201,1809.040527 1417.518921,1801.356323 
	C1427.799438,1795.728882 1434.128174,1787.164673 1436.953613,1775.960083 
	C1440.153320,1763.271118 1433.871826,1748.788208 1420.555786,1741.515503 
	C1410.400879,1735.969238 1399.421143,1731.803589 1388.535522,1727.758057 
	C1374.798096,1722.652222 1361.099854,1717.852905 1348.572144,1709.816650 
	C1318.182739,1690.322266 1318.245483,1646.959351 1337.609985,1625.478271 
	C1350.769653,1610.880249 1366.920776,1602.550781 1386.143799,1600.407715 
	C1406.238159,1598.167603 1425.987183,1601.138794 1445.492310,1606.050903 
	C1449.511597,1607.063232 1451.722412,1609.023315 1452.206299,1613.433594 
	C1453.616821,1626.291382 1455.393677,1639.109131 1457.177124,1653.121826 
	C1453.726440,1654.100098 1450.162964,1655.110229 1446.061646,1656.272949 
	C1444.836548,1652.931030 1443.753174,1650.560669 1443.092896,1648.077759 
	C1439.325195,1633.908936 1430.148193,1625.263306 1416.261597,1621.134766 
	C1398.759644,1615.931152 1381.951904,1617.522583 1366.052002,1626.417236 
	C1349.490234,1635.681885 1345.850830,1657.440430 1358.733154,1671.628174 
	C1362.891602,1676.208008 1368.180664,1680.288696 1373.739014,1682.962280 
	C1386.007690,1688.863770 1398.861572,1693.534180 1411.315186,1699.069824 
	C1421.916626,1703.781982 1432.734985,1708.264038 1442.643311,1714.205444 
	C1452.513184,1720.124146 1460.482300,1728.876953 1462.696533,1740.547729 
	C1467.640015,1766.604126 1463.948486,1790.380615 1441.427612,1807.984009 
	C1439.067993,1809.828491 1436.698853,1811.660645 1433.713379,1813.876221 
z"/>
<path fill="#DEA735" opacity="1.000000" stroke="none" 
	d="
M1130.708862,1039.599854 
	C1145.698853,1049.407959 1161.072266,1056.811035 1177.467651,1062.153931 
	C1107.889893,1073.091309 1055.310913,1035.300415 1045.995605,960.250244 
	C1071.965698,990.854187 1098.531982,1017.774902 1130.708862,1039.599854 
z"/>
<path fill="#DEA735" opacity="1.000000" stroke="none" 
	d="
M1123.525635,1185.334839 
	C1103.573364,1188.891846 1084.436279,1188.389771 1062.715210,1184.995361 
	C1067.575073,1183.320923 1070.290161,1182.297974 1073.057739,1181.445190 
	C1109.476196,1170.224731 1142.365967,1152.830444 1169.047729,1125.181030 
	C1176.833862,1117.112427 1183.187744,1107.660645 1190.185059,1098.832520 
	C1191.507446,1097.164062 1192.768555,1095.447144 1194.680420,1092.934570 
	C1194.781372,1135.507080 1169.813599,1175.833984 1123.525635,1185.334839 
z"/>
<path fill="#DEA735" opacity="1.000000" stroke="none" 
	d="
M1236.830688,1039.948975 
	C1259.372559,1023.216675 1283.443848,1012.081726 1311.258667,1010.193115 
	C1340.871582,1008.182495 1365.969360,1018.333130 1387.590332,1038.072266 
	C1391.967285,1042.068237 1396.240479,1046.178101 1400.077148,1051.153564 
	C1345.660645,1029.373901 1290.516357,1032.430664 1233.956055,1043.815918 
	C1235.064575,1042.159546 1235.685425,1041.231567 1236.830688,1039.948975 
z"/>
<path fill="#DEA735" opacity="1.000000" stroke="none" 
	d="
M1291.778564,1214.203369 
	C1288.416626,1227.089966 1286.127319,1239.450806 1279.892944,1250.760986 
	C1284.647339,1190.054810 1270.908936,1134.527222 1234.030640,1084.161011 
	C1245.929932,1086.309814 1254.391479,1092.744263 1262.470947,1099.198486 
	C1281.276245,1114.220947 1290.891724,1134.463989 1294.391479,1158.046509 
	C1297.160156,1176.702881 1295.331909,1195.041016 1291.778564,1214.203369 
z"/>
<path fill="#DEA735" opacity="1.000000" stroke="none" 
	d="
M1224.364990,928.936646 
	C1218.984497,946.107178 1212.880859,962.335693 1209.087280,979.087402 
	C1205.376343,995.474243 1204.020386,1012.394531 1201.625732,1029.079834 
	C1166.970947,974.030945 1193.793457,908.763062 1254.520752,878.976074 
	C1241.740601,895.079651 1231.837524,910.863892 1224.364990,928.936646 
z"/>
<path fill="#0F3446" opacity="1.000000" stroke="none" 
	d="
M1181.989380,1077.969116 
	C1182.951416,1077.524048 1184.023315,1077.215332 1185.095215,1076.906616 
	C1184.453003,1077.370972 1183.810791,1077.835449 1182.744385,1078.338623 
	C1182.320068,1078.377197 1182.099243,1078.105469 1181.989380,1077.969116 
z"/>
<path fill="#0F3446" opacity="1.000000" stroke="none" 
	d="
M1226.891846,1096.265625 
	C1226.804199,1096.174805 1227.122925,1095.878052 1227.122925,1095.878052 
	C1227.122925,1095.878052 1226.979370,1096.356445 1226.891846,1096.265625 
z"/>
<path fill="#0F3446" opacity="1.000000" stroke="none" 
	d="
M1434.017578,1550.038818 
	C1434.087524,1550.109253 1433.560913,1550.598633 1433.560913,1550.598633 
	C1433.560913,1550.598633 1433.478638,1550.031982 1433.639404,1549.933472 
	C1433.800293,1549.834961 1433.947510,1549.968384 1434.017578,1550.038818 
z"/>
<path fill="#0F3446" opacity="1.000000" stroke="none" 
	d="
M1188.107178,1043.917969 
	C1188.176270,1043.854492 1188.696045,1044.357910 1188.696045,1044.357910 
	C1188.696045,1044.357910 1188.115479,1044.438599 1188.011475,1044.277344 
	C1187.907349,1044.115967 1188.038208,1043.981567 1188.107178,1043.917969 
z"/>
<path fill="#0F3446" opacity="1.000000" stroke="none" 
	d="
M1179.905029,1093.879272 
	C1179.834106,1093.802979 1180.413086,1093.210205 1180.413086,1093.210205 
	C1180.413086,1093.210205 1180.497803,1093.872925 1180.311401,1093.987061 
	C1180.125000,1094.101196 1179.975952,1093.955566 1179.905029,1093.879272 
z"/>
<path fill="#0F3446" opacity="1.000000" stroke="none" 
	d="
M1174.027954,1045.983398 
	C1174.063354,1045.950317 1174.662476,1046.442017 1174.662476,1046.442017 
	C1174.662476,1046.442017 1174.076294,1046.475098 1174.002441,1046.282471 
	C1173.928711,1046.089844 1173.992554,1046.016602 1174.027954,1045.983398 
z"/>
<path fill="#000102" opacity="1.000000" stroke="none" 
	d="
M1079.484863,1357.983887 
	C1066.816162,1356.132324 1058.679443,1360.286987 1054.641846,1372.027954 
	C1053.533813,1375.250122 1050.925781,1377.956299 1047.702026,1382.898193 
	C1045.558594,1375.319458 1043.372803,1370.130981 1042.731445,1364.758057 
	C1041.630249,1355.533569 1036.515869,1351.583008 1027.821655,1350.400269 
	C1022.419800,1349.665405 1017.153687,1347.932983 1011.826599,1346.648438 
	C1011.747864,1345.943115 1011.669128,1345.237793 1011.590332,1344.532471 
	C1015.729431,1341.995483 1019.784485,1339.307007 1024.024292,1336.951416 
	C1034.310791,1331.236450 1036.521240,1326.671021 1034.785278,1315.123413 
	C1034.158203,1310.951904 1034.193848,1306.680786 1033.900269,1302.032227 
	C1040.667969,1301.735718 1043.328003,1306.632324 1046.796509,1309.695068 
	C1056.973389,1318.681641 1056.926025,1318.789795 1069.513428,1313.203979 
	C1073.636108,1311.374390 1077.957520,1309.992065 1083.030518,1308.089233 
	C1083.964966,1314.612549 1081.283325,1318.854126 1079.289673,1323.237061 
	C1074.616333,1333.510620 1075.272095,1337.520386 1082.858276,1345.570312 
	C1086.413574,1349.342896 1089.845215,1353.231934 1092.481689,1358.929443 
	C1088.435181,1358.634888 1084.388672,1358.340332 1079.484863,1357.983887 
z"/>
<path fill="#000102" opacity="1.000000" stroke="none" 
	d="
M1204.339355,759.589905 
	C1206.848389,762.572754 1208.858765,765.052795 1211.763672,768.636108 
	C1203.802002,771.116638 1197.249756,770.227417 1190.949585,769.064636 
	C1185.062988,767.978088 1181.410767,769.798767 1178.588501,774.819458 
	C1175.225952,780.800781 1171.516235,786.586792 1166.672974,794.575073 
	C1164.613037,787.285522 1162.612427,782.403687 1161.937012,777.344910 
	C1160.648193,767.692383 1156.008057,762.502563 1145.956055,761.730713 
	C1140.777100,761.333069 1135.724243,759.291016 1128.537109,757.463928 
	C1135.750000,753.007324 1141.144897,749.351868 1146.839600,746.245911 
	C1152.547974,743.132446 1154.858276,738.749878 1154.061157,732.329163 
	C1153.299194,726.192200 1152.936157,720.005554 1152.315918,712.902466 
	C1159.431885,714.361145 1163.259766,718.653992 1167.072632,722.460876 
	C1173.147827,728.526611 1179.390137,729.424438 1186.947632,725.528015 
	C1191.835205,723.008057 1197.133057,721.283997 1202.247070,719.203308 
	C1202.812378,719.715210 1203.377686,720.227051 1203.942993,720.738953 
	C1202.463135,724.240295 1201.110474,727.802063 1199.481445,731.232544 
	C1192.319458,746.315125 1192.463745,747.414124 1204.339355,759.589905 
z"/>
<path fill="#000102" opacity="1.000000" stroke="none" 
	d="
M1452.245605,1266.202881 
	C1450.397339,1271.839233 1449.036987,1277.699463 1446.579468,1283.056519 
	C1443.379395,1290.032715 1444.006836,1295.591553 1449.687622,1301.004395 
	C1453.700317,1304.827759 1456.959229,1309.442017 1461.338867,1314.632812 
	C1455.046387,1317.052490 1449.919678,1316.033691 1444.838745,1315.262207 
	C1435.458008,1313.838135 1430.693604,1316.043945 1425.867798,1324.272217 
	C1423.078491,1329.027954 1420.369507,1333.831055 1417.624390,1338.612793 
	C1416.871338,1338.500977 1416.118164,1338.389160 1415.364990,1338.277344 
	C1413.747437,1332.326294 1411.613281,1326.457764 1410.647461,1320.402832 
	C1409.520752,1313.339722 1405.535156,1310.030640 1398.977295,1308.671143 
	C1392.855103,1307.402222 1386.793335,1305.841431 1379.159912,1304.045410 
	C1384.921143,1298.542236 1390.450806,1295.064819 1396.112793,1292.311157 
	C1403.186646,1288.870972 1404.541382,1283.659180 1403.586670,1276.740601 
	C1402.777588,1270.876709 1402.280518,1264.969727 1401.560547,1258.295166 
	C1407.920654,1258.662354 1410.314819,1263.177002 1413.569946,1265.950806 
	C1425.146118,1275.814819 1426.851929,1276.159302 1440.175415,1269.851318 
	C1443.460327,1268.296021 1446.970947,1267.217285 1451.217285,1265.974854 
	C1452.056641,1266.030273 1452.245605,1266.202881 1452.245605,1266.202881 
z"/>
<path fill="#000102" opacity="1.000000" stroke="none" 
	d="
M1451.966309,1265.939697 
	C1451.876099,1265.848999 1452.425659,1265.393188 1452.425659,1265.393188 
	C1452.425659,1265.393188 1452.536621,1265.966797 1452.391113,1266.084839 
	C1452.245605,1266.202881 1452.056641,1266.030273 1451.966309,1265.939697 
z"/>
<path fill="#000102" opacity="1.000000" stroke="none" 
	d="
M1526.014160,902.010010 
	C1523.901245,908.271729 1522.057373,914.641602 1519.595825,920.763123 
	C1517.371826,926.294006 1517.615723,930.877075 1521.896973,935.408691 
	C1526.203735,939.967041 1529.984497,945.022400 1534.679321,950.684265 
	C1529.267212,953.047119 1524.406372,952.206116 1519.678589,951.700989 
	C1507.224731,950.370178 1503.316895,952.468262 1497.621948,963.804260 
	C1496.278931,966.477661 1494.775146,969.077637 1493.210449,971.628662 
	C1492.550049,972.705139 1491.540161,973.567261 1489.456543,975.916809 
	C1487.484741,968.841858 1485.370850,963.038330 1484.324829,957.048401 
	C1483.049438,949.745483 1479.215698,946.035522 1471.970337,944.860779 
	C1465.887817,943.874512 1459.938477,942.066895 1451.446533,940.026123 
	C1459.123169,935.117432 1464.451904,931.266663 1470.185303,928.163696 
	C1476.413574,924.792908 1478.422852,920.357544 1476.951538,913.362488 
	C1475.811523,907.942322 1476.088257,902.224182 1475.757202,896.984558 
	C1480.338989,894.682800 1482.179565,897.703003 1484.234253,899.551147 
	C1501.559326,915.134521 1498.613647,912.928589 1517.874512,904.190369 
	C1519.973267,903.238220 1522.281128,902.746948 1525.245972,902.020996 
	C1526.000000,902.000061 1526.014160,902.010010 1526.014160,902.010010 
z"/>
<path fill="#000102" opacity="1.000000" stroke="none" 
	d="
M1525.996338,901.994751 
	C1525.992676,901.989441 1526.310425,901.538818 1526.310425,901.538818 
	C1526.310425,901.538818 1526.301270,901.925049 1526.157715,901.967529 
	C1526.014160,902.010010 1526.000000,902.000061 1525.996338,901.994751 
z"/>
<path fill="#000102" opacity="1.000000" stroke="none" 
	d="
M880.117920,963.853699 
	C884.725281,966.965027 889.671814,969.680054 893.867981,973.271729 
	C902.115601,980.331116 903.684692,980.746094 913.369141,976.437256 
	C918.176575,974.298401 923.144531,972.520325 928.598389,970.357483 
	C930.403442,976.512512 927.654663,980.934143 925.380249,985.021973 
	C920.462769,993.860107 920.895447,1001.193909 928.948242,1008.082642 
	C932.360535,1011.001648 934.615845,1015.273132 938.271729,1020.080017 
	C934.911987,1020.749268 932.870667,1021.456604 930.822388,1021.477417 
	C928.867493,1021.497375 926.919739,1020.685547 924.943909,1020.440247 
	C910.131409,1018.601379 909.552368,1018.939270 902.037903,1031.787598 
	C899.593018,1035.967651 896.927124,1040.018555 893.117310,1046.123657 
	C891.072205,1037.747070 889.316406,1031.785767 888.210571,1025.706177 
	C886.904297,1018.524902 883.161987,1014.645630 875.767883,1013.623413 
	C869.891235,1012.810852 864.154541,1010.985901 856.993347,1009.287231 
	C859.274780,1006.948486 860.573364,1005.278320 862.200378,1004.039246 
	C864.041199,1002.637207 866.076111,1001.387329 868.200745,1000.478455 
	C878.339417,996.141052 883.449646,989.463806 880.236633,977.828186 
	C879.205750,974.094910 879.916504,969.880798 879.922302,964.927368 
	C880.014160,963.968079 880.117920,963.853699 880.117920,963.853699 
z"/>
<path fill="#000102" opacity="1.000000" stroke="none" 
	d="
M879.958740,964.021729 
	C879.903381,964.075439 879.439636,963.598816 879.439636,963.598816 
	C879.439636,963.598816 879.953247,963.543884 880.035583,963.698792 
	C880.117920,963.853699 880.014160,963.968079 879.958740,964.021729 
z"/>
<path fill="#000102" opacity="1.000000" stroke="none" 
	d="
M1670.828613,1662.880371 
	C1674.354858,1653.907349 1677.593262,1645.654053 1681.080078,1636.768066 
	C1686.657471,1644.252808 1710.543091,1713.023560 1710.988892,1721.651978 
	C1703.210083,1724.795898 1662.650513,1725.390991 1648.886719,1722.295288 
	C1654.884399,1702.213135 1663.681152,1683.244141 1670.828613,1662.880371 
z"/>
</svg>